# xmcd
#
# Track frame offsets:
#	150
#	13380
#	28195
#	41295
#	53605
#	64545
#	75345
#	84747
#	99530
#	114752
#	124315
#	134175
#	143065
#	157275
#	171317
#	181577
#	195127
#	206675
#
# Disc length: 2919 seconds
#
# Revision: 1
# Processed by: cddbd v1.5.2PL0 Copyright (c) Steve Scherf et al.
# Submitted via: audiograbber 1.83.01
#
DISCID=f10b6512
DTITLE=Faron Young - All American Country
DYEAR=1994
DGENRE=Country
TTITLE0=It's Four In The Morning
TTITLE1=Little Green Apples
TTITLE2=City Lights
TTITLE3=Walk Tall (Walk Straight)
TTITLE4=The Yellow Bandana
TTITLE5=He'll Have To Go
TTITLE6=Is It Really Over
TTITLE7=Welcome To My World
TTITLE8=Four Walls
TTITLE9=I'm Gonna Change Everything
TTITLE10=You Don't Know Me
TTITLE11=Am I That Easy To Forget
TTITLE12=She Thinks I Still Care
TTITLE13=Faded Love
TTITLE14=Drinking Champagne
TTITLE15=San Antonio Rose
TTITLE16=Linda On M Mind
TTITLE17=I Can't Stop Loving You
EXTD=Spectrum Music
EXTT0=
EXTT1=
EXTT2=
EXTT3=
EXTT4=
EXTT5=
EXTT6=
EXTT7=
EXTT8=
EXTT9=
EXTT10=
EXTT11=
EXTT12=
EXTT13=
EXTT14=
EXTT15=
EXTT16=
EXTT17=
PLAYORDER=
